<svg xmlns="http://www.w3.org/2000/svg" width="151" height="103"><g transform="translate(-283 -464)"><path d="M396 470v3h-2l1-6zM320 470v4l2-1-1-7z" fill="#333333" stroke="#000000" stroke-width=".531"/><path d="M320 469l75 1-1-2h-72z" fill="#b3b3b3"/><rect width="75.1" height="1.8" x="320" y="469" ry="0" fill="#000000" stroke="#000000" stroke-width=".14" stroke-linecap="round"/><path d="M291 515c-2 5-3 15-4 19 2 3 4 16 7 14-1-1 1-5 0-6-1-3-3-8 4-10-1-4 7-18 8-24-4 2-12 4-15 7z" fill="#f2f2f2"/><path d="M297 537c-1-10 3-21 13-35 0 0 9-19 20-31 20-3 42-2 54 0 9 8 15 19 21 31 1 3 16 26 13 36-13 5-121-1-121-1z" fill="#e6e6e6"/><path d="M423 514c2 4 4 15 4 20-2 3-2 14-5 13 1-1 0-5 1-7 2-2 2-6-5-8 1-4-9-17-10-24 4 1 12 3 15 6z" fill="#f2f2f2"/><path d="M287 534c1 12 1 20 7 26 38 6 69 10 124 1 9-5 9-24 9-27-42 2-95 6-140 0z" fill="#b3b3b3"/><path d="M383 526h-48c-10-1-36-4-36-4-1 3-2 6-2 10 0 0 2 6 4 8h105c6-1 10-3 12-5 1-5-2-11-3-12-14 0-26 2-32 3z" fill="#cccccc"/><path d="M297 533l-10 1c19 13 122 16 140 0l-9-2c5 4-78 13-121 1z" fill="#e6e6e6"/><path d="M304 557c35 8 89 6 108-1l3-11c-33 5-69 8-114-1z" fill="#1a1a1a" stroke="#000000" stroke-width=".531"/><path d="M302 524c3 1 18 1 24 3 4 1 6 6 4 7-3 1-30-1-30-1s-1-4 2-9z" fill="#ffffff" stroke="#000000" stroke-width=".531"/><path d="M381 527l-2 12h-43l-2-12z" fill="#000000" stroke="#000000" stroke-width=".531"/><path d="M313 500c1-5 5-11 13-23 18-1 38-1 62 0 4 5 12 17 14 23z" fill="#1a1a1a" stroke="#000000" stroke-width=".511"/><path d="M358 472v-8" fill="none" stroke="#000000" stroke-width=".466"/><path d="M332 525l-17-22M383 525l16-22" fill="none" stroke="#000000" stroke-width=".531"/><path d="M413 524c-3 1-18 1-24 3-4 1-6 6-4 7 3 1 30-1 30-1s1-4-2-9z" fill="#ffffff" stroke="#000000" stroke-width=".531"/><path d="M312.8 494.2c1.5 2.9.1 1.7 0 4.3-6.4 1.4-18.3-1.7-8.5-7.3 2.9-1.8 8.2.1 8.5 3zM402 493c-1 3 0 2 0 5 7 1 19-2 9-8-3-2-8 0-9 3z" fill="#e9e9e9" fill-opacity=".925"/></g></svg>