<?xml version="1.0" encoding="UTF-8" standalone="no"?>
<!-- Created with Inkscape (http://www.inkscape.org/) -->

<svg
   xmlns:dc="http://purl.org/dc/elements/1.1/"
   xmlns:cc="http://creativecommons.org/ns#"
   xmlns:rdf="http://www.w3.org/1999/02/22-rdf-syntax-ns#"
   xmlns:svg="http://www.w3.org/2000/svg"
   xmlns="http://www.w3.org/2000/svg"
   xmlns:sodipodi="http://sodipodi.sourceforge.net/DTD/sodipodi-0.dtd"
   xmlns:inkscape="http://www.inkscape.org/namespaces/inkscape"
   width="151"
   height="103"
   id="svg2"
   version="1.1"
   inkscape:version="0.91 r13725"
   sodipodi:docname="car2.svg">
  <defs
     id="defs4" />
  <sodipodi:namedview
     id="base"
     pagecolor="#ffffff"
     bordercolor="#666666"
     borderopacity="1.0"
     inkscape:pageopacity="0.0"
     inkscape:pageshadow="2"
     inkscape:zoom="2.85"
     inkscape:cx="16.9"
     inkscape:cy="47"
     inkscape:document-units="px"
     inkscape:current-layer="layer1"
     showgrid="false"
     fit-margin-top="0"
     fit-margin-left="0"
     fit-margin-right="0"
     fit-margin-bottom="0"
     showborder="true"
     inkscape:showpageshadow="false"
     inkscape:snap-grids="true"
     inkscape:snap-bbox="true"
     inkscape:window-width="1366"
     inkscape:window-height="705"
     inkscape:window-x="-8"
     inkscape:window-y="-8"
     inkscape:window-maximized="1" />
  <metadata
     id="metadata7">
    <rdf:RDF>
      <cc:Work
         rdf:about="">
        <dc:format>image/svg+xml</dc:format>
        <dc:type
           rdf:resource="http://purl.org/dc/dcmitype/StillImage" />
        <dc:title />
      </cc:Work>
    </rdf:RDF>
  </metadata>
  <g
     inkscape:label="Layer 1"
     inkscape:groupmode="layer"
     id="layer1"
     transform="translate(-283,-464)">
    <path
       style="fill:#1a1a1a;fill-opacity:1;stroke:#000000;stroke-width:0.638;stroke-linecap:round;stroke-linejoin:miter;stroke-miterlimit:4;stroke-opacity:1;stroke-dashoffset:0"
       d="m 289,544 10,0 0,0 0,18 c 0,0 0,0 0,0 0,0 -6,1 -9,0 -1,-4 0,-18 -1,-18 z"
       id="rect4008"
       inkscape:connector-curvature="0"
       sodipodi:nodetypes="cccsccc" />
    <path
       style="fill:#f2f2f2;stroke:none;stroke-width:0.531px;stroke-linecap:butt;stroke-linejoin:miter;stroke-opacity:1"
       d="m 291,515 c -2,4 -4,23 -4,29 2,3 4,6 7,4 -1,-1 1,-5 0,-6 -1,-3 -3,-8 4,-10 -1,-4 0,-14 1,-20 -4,2 -5,0 -8,3 z"
       id="path2999"
       inkscape:connector-curvature="0"
       sodipodi:nodetypes="ccccccc" />
    <path
       style="fill:#e6e6e6;fill-opacity:1;stroke:none;stroke-width:0.531px;stroke-linecap:butt;stroke-linejoin:miter;stroke-opacity:1"
       d="m 298,539 c 0,0 -3,-17 1,-27 15,-13 18,-25 27,-33 12,-4 51,-4 65,-1 10,8 18,31 26,33 2,9 4,17 1,27 -13,5 -79,8 -120,1 z"
       id="path3967"
       inkscape:connector-curvature="0"
       sodipodi:nodetypes="ccccccc" />
    <path
       sodipodi:nodetypes="cccsccc"
       inkscape:connector-curvature="0"
       id="path4013"
       d="m 427,544 -9,2 0,0 0,17 c 0,0 0,0 0,0 -1,-1 5,0 9,0 2,-5 0,-19 0,-19 z"
       style="fill:#1a1a1a;fill-opacity:1;stroke:#000000;stroke-width:0.638;stroke-linecap:round;stroke-linejoin:miter;stroke-miterlimit:4;stroke-opacity:1;stroke-dashoffset:0" />
    <path
       sodipodi:nodetypes="ccccccc"
       inkscape:connector-curvature="0"
       id="path3154"
       d="m 425,515 c 2,4 4,23 4,28 -2,3 -4,5 -7,4 1,-1 0,-5 1,-7 2,-2 2,-6 -5,-8 1,-4 0,-14 -1,-21 4,1 5,1 8,4 z"
       style="fill:#f2f2f2;stroke:none;stroke-width:0.531px;stroke-linecap:butt;stroke-linejoin:miter;stroke-opacity:1" />
    <path
       style="fill:#b3b3b3;fill-opacity:1;stroke:none;stroke-width:0.531px;stroke-linecap:butt;stroke-linejoin:miter;stroke-opacity:1"
       d="m 293,536 c 0,10 1,18 5,26 0,0 4,4 4,2 -3,2 65,6 112,0 3,0 5,-2 5,-2 4,-7 4,-16 4,-24 -42,2 -85,4 -130,-2 z"
       id="path3193"
       inkscape:connector-curvature="0"
       sodipodi:nodetypes="cccsccc" />
    <path
       style="fill:#cccccc;fill-opacity:1;stroke:none;stroke-width:0.531px;stroke-linecap:butt;stroke-linejoin:miter;stroke-opacity:1"
       d="m 407,514 -98,0 -12,8 c 0,8 1,16 1,16 1,0 3,0 4,1 0,0 0,0 0,0 11,0 75,0 103,0 6,-1 10,-1 12,-3 2,-5 2,-10 1,-16 l -11,-6 z"
       id="path3982"
       inkscape:connector-curvature="0" />
    <path
       style="fill:#e6e6e6;stroke:none;stroke-width:0.531px;stroke-linecap:butt;stroke-linejoin:miter;stroke-opacity:1"
       d="m 298,532 c -8,2 -7,12 3,12 2,0 101,2 114,-1 6,0 14,-7 4,-11 -2,-1 0,6 -10,6 -35,1 -71,2 -102,1 -4,-1 -9,-1 -9,-7 z"
       id="path3166"
       inkscape:connector-curvature="0"
       sodipodi:nodetypes="csscssc" />
    <path
       style="fill:#1a1a1a;stroke:#000000;stroke-width:0.531px;stroke-linecap:butt;stroke-linejoin:miter;stroke-opacity:1"
       d="m 301,560 c 37,3 80,2 116,0 l 1,-5 c -40,3 -79,4 -120,0 z"
       id="path3965"
       inkscape:connector-curvature="0"
       sodipodi:nodetypes="ccccc" />
    <path
       style="fill:#800000;stroke:#000000;stroke-width:0.531px;stroke-linecap:butt;stroke-linejoin:miter;stroke-opacity:1"
       d="m 298,523 c -1,3 17,1 23,3 4,0 6,8 4,9 -3,1 -16,3 -24,0 -6,-3 -4,-7 -3,-12 z"
       id="path3969"
       inkscape:connector-curvature="0"
       sodipodi:nodetypes="csscc" />
    <path
       sodipodi:nodetypes="csscc"
       inkscape:connector-curvature="0"
       id="path3973"
       d="m 418,523 c 1,3 -17,1 -23,3 -4,0 -6,8 -4,9 3,0 16,1 24,0 6,-3 4,-7 3,-12 z"
       style="fill:#800000;stroke:#000000;stroke-width:0.531px;stroke-linecap:butt;stroke-linejoin:miter;stroke-opacity:1" />
    <rect
       style="fill:#ffffff;fill-opacity:0.735;stroke:#000000;stroke-width:0.531;stroke-opacity:1"
       id="rect3986"
       width="46.4"
       height="9.25"
       x="334"
       y="526"
       ry="3.72e-006" />
    <path
       style="fill:#1a1a1a;fill-opacity:1;stroke:#000000;stroke-width:0.531px;stroke-linecap:butt;stroke-linejoin:miter;stroke-opacity:1"
       d="m 313,505 c 1,-5 2,-9 12,-21 20,-1 42,-1 68,0 4,7 9,13 10,21 z"
       id="path3988"
       inkscape:connector-curvature="0"
       sodipodi:nodetypes="ccccc" />
    <path
       style="fill:#333333;stroke:#000000;stroke-width:0.531px;stroke-linecap:butt;stroke-linejoin:miter;stroke-opacity:1"
       d="m 283,491 2,10 5,-2 -1,-11 z"
       id="path3992"
       inkscape:connector-curvature="0" />
    <path
       inkscape:connector-curvature="0"
       id="path3994"
       d="m 433,491 -2,10 -4,-2 0,-11 z"
       style="fill:#333333;stroke:#000000;stroke-width:0.531px;stroke-linecap:butt;stroke-linejoin:miter;stroke-opacity:1" />
    <path
       inkscape:connector-curvature="0"
       id="path3998"
       d="m 377,511 0,-20 -2,0 0,18 z"
       style="fill:#1a1a1a;stroke:#000000;stroke-width:0.531px;stroke-linecap:butt;stroke-linejoin:miter;stroke-opacity:1" />
    <path
       style="fill:#b3b3b3;stroke:none;stroke-width:0.531px;stroke-linecap:butt;stroke-linejoin:miter;stroke-opacity:1"
       d="m 289,489 138,0 3,3 -143,-1 z"
       id="path3990"
       inkscape:connector-curvature="0" />
    <path
       style="fill:#1a1a1a;stroke:#000000;stroke-width:0.531px;stroke-linecap:butt;stroke-linejoin:miter;stroke-opacity:1"
       d="m 339,511 0,-19 2,0 0,19 z"
       id="path3996"
       inkscape:connector-curvature="0" />
    <rect
       style="fill:#000000;fill-opacity:1;stroke:#000000;stroke-width:0.266;stroke-linecap:round;stroke-linejoin:miter;stroke-miterlimit:4;stroke-opacity:1;stroke-dasharray:none;stroke-dashoffset:0"
       id="rect4000"
       width="143"
       height="3.43"
       x="287"
       y="491"
       ry="3.72e-006" />
    <path
       style="fill:none;stroke:#000000;stroke-width:0.638;stroke-linecap:butt;stroke-linejoin:miter;stroke-miterlimit:4;stroke-opacity:1;stroke-dasharray:none"
       d="m 358,479 0,-15"
       id="path4002"
       inkscape:connector-curvature="0" />
    <path
       style="fill:none;stroke:#000000;stroke-width:0.531px;stroke-linecap:butt;stroke-linejoin:miter;stroke-opacity:1"
       d="m 310,514 3,-9"
       id="path4004"
       inkscape:connector-curvature="0"
       sodipodi:nodetypes="cc" />
    <path
       style="fill:none;stroke:#000000;stroke-width:0.531px;stroke-linecap:butt;stroke-linejoin:miter;stroke-opacity:1"
       d="m 407,514 -4,-9"
       id="path4006"
       inkscape:connector-curvature="0" />
  </g>
</svg>
