<svg xmlns="http://www.w3.org/2000/svg" width="151" height="103"><g transform="translate(-283 -464)"><path d="M289 544h10v18s-6 1-9 0c-1-4 0-18-1-18z" fill="#1a1a1a" stroke="#000000" stroke-width=".638" stroke-linecap="round"/><path d="M291 515c-2 4-4 23-4 29 2 3 4 6 7 4-1-1 1-5 0-6-1-3-3-8 4-10-1-4 0-14 1-20-4 2-5 0-8 3z" fill="#f2f2f2"/><path d="M298 539s-3-17 1-27c15-13 18-25 27-33 12-4 51-4 65-1 10 8 18 31 26 33 2 9 4 17 1 27-13 5-79 8-120 1z" fill="#e6e6e6"/><path d="M427 544l-9 2v17c-1-1 5 0 9 0 2-5 0-19 0-19z" fill="#1a1a1a" stroke="#000000" stroke-width=".638" stroke-linecap="round"/><path d="M425 515c2 4 4 23 4 28-2 3-4 5-7 4 1-1 0-5 1-7 2-2 2-6-5-8 1-4 0-14-1-21 4 1 5 1 8 4z" fill="#f2f2f2"/><path d="M293 536c0 10 1 18 5 26 0 0 4 4 4 2-3 2 65 6 112 0 3 0 5-2 5-2 4-7 4-16 4-24-42 2-85 4-130-2z" fill="#b3b3b3"/><path d="M407 514h-98l-12 8c0 8 1 16 1 16 1 0 3 0 4 1h103c6-1 10-1 12-3 2-5 2-10 1-16l-11-6z" fill="#cccccc"/><path d="M298 532c-8 2-7 12 3 12 2 0 101 2 114-1 6 0 14-7 4-11-2-1 0 6-10 6-35 1-71 2-102 1-4-1-9-1-9-7z" fill="#e6e6e6"/><path d="M301 560c37 3 80 2 116 0l1-5c-40 3-79 4-120 0z" fill="#1a1a1a" stroke="#000000" stroke-width=".531"/><path d="M298 523c-1 3 17 1 23 3 4 0 6 8 4 9-3 1-16 3-24 0-6-3-4-7-3-12zM418 523c1 3-17 1-23 3-4 0-6 8-4 9 3 0 16 1 24 0 6-3 4-7 3-12z" fill="#800000" stroke="#000000" stroke-width=".531"/><rect width="46.4" height="9.25" x="334" y="526" ry="0" fill="#ffffff" fill-opacity=".735" stroke="#000000" stroke-width=".531"/><path d="M313 505c1-5 2-9 12-21 20-1 42-1 68 0 4 7 9 13 10 21z" fill="#1a1a1a" stroke="#000000" stroke-width=".531"/><path d="M283 491l2 10 5-2-1-11zM433 491l-2 10-4-2v-11z" fill="#333333" stroke="#000000" stroke-width=".531"/><path d="M377 511v-20h-2v18z" fill="#1a1a1a" stroke="#000000" stroke-width=".531"/><path d="M289 489h138l3 3-143-1z" fill="#b3b3b3"/><path d="M339 511v-19h2v19z" fill="#1a1a1a" stroke="#000000" stroke-width=".531"/><rect width="143" height="3.43" x="287" y="491" ry="0" fill="#000000" stroke="#000000" stroke-width=".266" stroke-linecap="round"/><path d="M358 479v-15" fill="none" stroke="#000000" stroke-width=".638"/><path d="M310 514l3-9M407 514l-4-9" fill="none" stroke="#000000" stroke-width=".531"/></g></svg>