<svg xmlns="http://www.w3.org/2000/svg" width="150" height="102"><g transform="translate(-282 -474)"><path d="M295 554h8v14.636V568s-5 0-8-1c-1-4 1-13 0-13z" fill="#1a1a1a" stroke="#000000" stroke-width=".634" stroke-linecap="round"/><path d="M298 526c-2 4-6 22-5 28 0 3 2 5 5 4-1-2 1-4 1-6-2-3-3-8 2-10-1-4 0-14 2-20-4 1-3 1-5 4z" fill="#f2f2f2"/><path d="M302 548s-2-16 0-25c1-2 2 0 3-2 19-16 27-31 36-33 13-4 65-1 65-1 6 2 24 29 21 31 3 8-4 20-7 29-12 5-78 8-118 1z" fill="#e6e6e6"/><path d="M429 535c-2-3-6-6-4-8 1-13 0-17-2-19 9-3 6 23 6 27z" fill="#f2f2f2"/><path d="M414 517c-1-2-9-17-9-23 0-2 1-1 3-5 3 2 6 5 13 16 0 4-5 9-7 12z" fill="#1a1a1a" stroke="#000000" stroke-width=".528"/><path d="M430 555h-10l-2 17c-1 0 8 0 12-1 1-4-1-16 0-16z" fill="#1a1a1a" stroke="#000000" stroke-width=".634" stroke-linecap="round"/><path d="M431 525s1 22 0 29c-1 2-7 4-10 3 1-2 1-3 1-4 2-4 5-10-1-11 1-4 1-11 2-17 3-2 8-1 8 0z" fill="#f2f2f2"/><path d="M297 547c-1 8-1 15 3 22 0 0 1.84 1.38 3.334 2.267.71.422 1.344.733 1.666.733-4 1 65 7 111 2 2 0 3-4 3-4 4-5 3-12 5-20 1-1-1-2 0-3-43 3-83 4-127 0z" fill="#b3b3b3"/><path d="M402 524l-96-1-6 9c0 8 1 16 1 16h4c11 0 74 1 103 1 5-1 7 0 9-1 1-2 1-6 1-7-1-3 0-6-1-10z" fill="#cccccc"/><path d="M301 543c-8 1-4 7 3 8 4 1 101 5 114 2 5-1 10-7 4-11-2-1 1 6-10 7-35 0-72 0-102-2-4 0-10 0-9-4z" fill="#e6e6e6"/><path d="M302 568c37 2 76 4 112 3l1-6c-39 2-75 1-115-3z" fill="#1a1a1a" stroke="#000000" stroke-width=".528"/><path d="M301 532c0 2 13 0 18 2 3 1 6 8 3 9-2 1-12 3-19 0-4-2-2-6-2-11z" fill="#800000" stroke="#000000" stroke-width=".474"/><path d="M417 534c0 2-18 0-23 2-3 0-7 8-4 9 2 1 16 2 23 0 6-3 4-6 4-11z" fill="#800000" stroke="#000000" stroke-width=".528"/><rect width="46.2" height="9.19" x="339" y="531" ry="0" fill="#ffffff" fill-opacity=".735" stroke="#000000" stroke-width=".528"/><path d="M316 515c3-4 10-12 19-21 17-2 58-2 67 0 2 7 2 14 4 22z" fill="#1a1a1a" stroke="#000000" stroke-width=".528"/><path d="M282 500v10l8-2v-10z" fill="#333333" stroke="#000000" stroke-width=".528"/><path d="M375 520l-1-19h-2l1 18zM339 520l-2-19h1l2 18z" fill="#1a1a1a" stroke="#000000" stroke-width=".528"/><path d="M407 491l13 18" fill="#b3b3b3" stroke="#999999" stroke-width=".528" stroke-linecap="round"/><path d="M290 499l135 1 1 2-140-1z" fill="#b3b3b3"/><rect width="139" height="2.3" x="286" y="501" ry=".185" fill="#000000" stroke="#000000" stroke-width=".264" stroke-linecap="round"/><path d="M424 498c1 3 1 7 1 11l1-4v-7z" fill="#333333" stroke="#000000" stroke-width=".528"/><path d="M368 490l-1-16" fill="none" stroke="#000000" stroke-width=".634"/><path d="M306 523l10-8M402 525l4-9" fill="none" stroke="#000000" stroke-width=".528"/><path d="M423 512l-1 2h2z" fill="#333333" stroke="#000000" stroke-width=".317"/><path d="M420 510c2 3 4 10 3 15" fill="none" stroke="#000000" stroke-width=".317"/></g></svg>