<?xml version="1.0" encoding="UTF-8" standalone="no"?>
<!-- Created with Inkscape (http://www.inkscape.org/) -->

<svg
   xmlns:dc="http://purl.org/dc/elements/1.1/"
   xmlns:cc="http://creativecommons.org/ns#"
   xmlns:rdf="http://www.w3.org/1999/02/22-rdf-syntax-ns#"
   xmlns:svg="http://www.w3.org/2000/svg"
   xmlns="http://www.w3.org/2000/svg"
   xmlns:sodipodi="http://sodipodi.sourceforge.net/DTD/sodipodi-0.dtd"
   xmlns:inkscape="http://www.inkscape.org/namespaces/inkscape"
   width="111.90679"
   height="67.055893"
   id="svg2"
   version="1.1"
   inkscape:version="0.48.3.1 r9886"
   sodipodi:docname="carturn.svg">
  <defs
     id="defs4" />
  <sodipodi:namedview
     id="base"
     pagecolor="#ffffff"
     bordercolor="#666666"
     borderopacity="1.0"
     inkscape:pageopacity="0.0"
     inkscape:pageshadow="2"
     inkscape:zoom="5.8011307"
     inkscape:cx="79.41938"
     inkscape:cy="48.360077"
     inkscape:document-units="px"
     inkscape:current-layer="g3800"
     showgrid="false"
     inkscape:window-width="1680"
     inkscape:window-height="987"
     inkscape:window-x="-8"
     inkscape:window-y="-8"
     inkscape:window-maximized="1"
     fit-margin-top="0"
     fit-margin-left="0"
     fit-margin-right="0"
     fit-margin-bottom="0" />
  <metadata
     id="metadata7">
    <rdf:RDF>
      <cc:Work
         rdf:about="">
        <dc:format>image/svg+xml</dc:format>
        <dc:type
           rdf:resource="http://purl.org/dc/dcmitype/StillImage" />
        <dc:title></dc:title>
      </cc:Work>
    </rdf:RDF>
  </metadata>
  <g
     inkscape:label="Layer 1"
     inkscape:groupmode="layer"
     id="layer1"
     transform="translate(-254.89882,-307.57198)">
    <g
       id="g3800"
       transform="matrix(0.75854892,0,0,1,102.64901,6.695279)">
      <rect
         ry="7.0120127e-006"
         y="358.05618"
         x="216.51534"
         height="10.115515"
         width="15.404826"
         id="rect3788"
         style="fill:#241c1c;fill-opacity:1;stroke:none" />
      <rect
         style="fill:#241c1c;fill-opacity:1;stroke:none"
         id="rect3894"
         width="11.314327"
         height="10.115515"
         x="247.71992"
         y="352.53201"
         ry="7.0120127e-006" />
      <rect
         ry="7.0120127e-006"
         y="351.75629"
         x="317.03113"
         height="10.115515"
         width="11.314327"
         id="rect3896"
         style="fill:#241c1c;fill-opacity:1;stroke:none" />
      <rect
         style="fill:#241c1c;fill-opacity:1;stroke:none"
         id="rect3794"
         width="15.404826"
         height="10.115515"
         x="324.3562"
         y="357.39062"
         ry="7.0120127e-006" />
      <path
         sodipodi:nodetypes="ccccccc"
         inkscape:connector-curvature="0"
         id="rect3762"
         d="m 227.25921,326.09063 112.95277,1.4367 1.60084,3.96715 4.85035,27.3697 -137.69829,-0.33741 4.02018,-27.52908 z"
         style="fill:#d40000;fill-opacity:1;stroke:none" />
      <g
         transform="matrix(0.78918844,0,0,0.65878601,61.230389,112.97819)"
         id="g3796">
        <path
           style="fill:#aa0000;fill-opacity:1;stroke:none"
           d="m 319.53202,285.21934 21.11869,41.44652 -1e-5,10e-6 -131.18641,0 c -1e-5,0 -1e-5,-10e-6 -1e-5,-10e-6 l 20.04487,-41.44652 z"
           id="rect3759"
           inkscape:connector-curvature="0"
           sodipodi:nodetypes="cccsccc" />
        <path
           style="fill:#e6e6e6;fill-opacity:1;stroke:none"
           d="m 230.71429,288.96933 86.78569,0 1e-5,10e-6 13.92857,33.21427 -111.96428,-0.35714 c -1e-5,0 11.25,-32.85713 11.25,-32.85713 0,-10e-6 0,-10e-6 1e-5,-10e-6 z"
           id="rect3765"
           inkscape:connector-curvature="0"
           sodipodi:nodetypes="scccccs" />
      </g>
      <path
         d="m 315.67269,357.37723 a 3.7880721,3.5355339 0 1 1 -7.57615,0 3.7880721,3.5355339 0 1 1 7.57615,0 z"
         sodipodi:ry="3.5355339"
         sodipodi:rx="3.7880721"
         sodipodi:cy="357.37723"
         sodipodi:cx="311.88461"
         id="path3774"
         style="fill:#4d4d4d;fill-opacity:1;stroke:none"
         sodipodi:type="arc"
         transform="translate(-2.2724988,-0.08619009)" />
      <path
         transform="translate(6.0612592,-0.08619009)"
         sodipodi:type="arc"
         style="fill:#4d4d4d;fill-opacity:1;stroke:none"
         id="path3776"
         sodipodi:cx="311.88461"
         sodipodi:cy="357.37723"
         sodipodi:rx="3.7880721"
         sodipodi:ry="3.5355339"
         d="m 315.67269,357.37723 a 3.7880721,3.5355339 0 1 1 -7.57615,0 3.7880721,3.5355339 0 1 1 7.57615,0 z" />
      <path
         transform="matrix(0.73333334,0,0,0.75,80.896729,89.384386)"
         sodipodi:type="arc"
         style="fill:#000000;fill-opacity:1;stroke:none"
         id="path3784"
         sodipodi:cx="311.88461"
         sodipodi:cy="357.37723"
         sodipodi:rx="3.7880721"
         sodipodi:ry="3.5355339"
         d="m 315.67269,357.37723 a 3.7880721,3.5355339 0 1 1 -7.57615,0 3.7880721,3.5355339 0 1 1 7.57615,0 z" />
      <path
         d="m 315.67269,357.37723 a 3.7880721,3.5355339 0 1 1 -7.57615,0 3.7880721,3.5355339 0 1 1 7.57615,0 z"
         sodipodi:ry="3.5355339"
         sodipodi:rx="3.7880721"
         sodipodi:cy="357.37723"
         sodipodi:cx="311.88461"
         id="path3786"
         style="fill:#000000;fill-opacity:1;stroke:none"
         sodipodi:type="arc"
         transform="matrix(0.73333334,0,0,0.75,89.230488,89.131848)" />
      <rect
         style="fill:#333333;fill-opacity:1;stroke:none"
         id="rect3814"
         width="19.312412"
         height="5.0214591"
         x="243.23201"
         y="320.18561"
         ry="9.4531251e-006" />
      <rect
         ry="9.4531251e-006"
         y="320.18561"
         x="291.06735"
         height="5.0214591"
         width="19.312412"
         id="rect3818"
         style="fill:#333333;fill-opacity:1;stroke:none" />
      <path
         style="fill:#d40000;fill-opacity:1;stroke:none"
         d="m 330.83283,325.49318 3.7893,0 4.23512,3.04345 -1e-5,10e-6 -8.02441,0 -10e-6,-10e-6 0,-3.04344 z"
         id="rect3864"
         inkscape:connector-curvature="0"
         sodipodi:nodetypes="cccccccc" />
      <path
         style="fill:#aa0000;fill-opacity:1;stroke:none"
         d="m 320.49962,307.28589 12.05556,18.84697 -2.24457,0.84067 -1.75092,-0.0856 -15.20193,-26.11275 z"
         id="rect3859"
         inkscape:connector-curvature="0"
         sodipodi:nodetypes="cccccc" />
      <path
         sodipodi:nodetypes="ccccc"
         inkscape:connector-curvature="0"
         id="path3862"
         d="m 319.90769,307.94808 11.22656,17.37022 -2.70097,0.9789 -13.5778,-23.15494 z"
         style="fill:#ffffff;fill-opacity:1;stroke:none" />
      <path
         style="fill:#550000;fill-opacity:1;stroke:none"
         d="m 213.8268,327.05325 130.66868,-0.0667 4.09545,3.24201 -0.64002,2.15203 -1e-5,10e-6 -145.92737,0 -1e-5,-10e-6 -0.96005,-1.6738 z"
         id="rect3822"
         inkscape:connector-curvature="0"
         sodipodi:nodetypes="ccccccccc" />
      <rect
         style="fill:#550000;fill-opacity:1;stroke:none"
         id="rect3827"
         width="3.1522963"
         height="4.064991"
         x="244.56519"
         y="331.90234"
         ry="9.4531251e-006" />
      <rect
         ry="9.4531251e-006"
         y="332.38055"
         x="296.57806"
         height="4.064991"
         width="3.1522963"
         id="rect3831"
         style="fill:#550000;fill-opacity:1;stroke:none" />
      <g
         id="g3851"
         transform="translate(6.0256804,1.0537343)">
        <rect
           ry="7.1531017e-006"
           y="339.82516"
           x="216.10388"
           height="9.7624979"
           width="108.74316"
           id="rect3847"
           style="fill:#666666;fill-opacity:1;stroke:none" />
        <path
           transform="matrix(1.1843999,0,0,1,-40.718357,1.4347027)"
           sodipodi:type="arc"
           style="fill:#800000;fill-opacity:1;stroke:none"
           id="path3768"
           sodipodi:cx="219.96072"
           sodipodi:cy="343.36136"
           sodipodi:rx="11.111678"
           sodipodi:ry="5.177032"
           d="m 231.0724,343.36136 c 0,2.85919 -4.97487,5.17703 -11.11168,5.17703 -6.13681,0 -11.11167,-2.31784 -11.11167,-5.17703 0,-2.8592 4.97486,-5.17703 11.11167,-5.17703 6.13681,0 11.11168,2.31783 11.11168,5.17703 z" />
        <rect
           ry="9.6362219e-006"
           y="341.70612"
           x="249.88776"
           height="7.0687079"
           width="41.925541"
           id="rect3837"
           style="fill:#f4d7d7;fill-opacity:1;stroke:#483737;stroke-width:1.15924132;stroke-opacity:1" />
        <path
           d="m 231.0724,343.36136 c 0,2.85919 -4.97487,5.17703 -11.11168,5.17703 -6.13681,0 -11.11167,-2.31784 -11.11167,-5.17703 0,-2.8592 4.97486,-5.17703 11.11167,-5.17703 6.13681,0 11.11168,2.31783 11.11168,5.17703 z"
           sodipodi:ry="5.177032"
           sodipodi:rx="11.111678"
           sodipodi:cy="343.36136"
           sodipodi:cx="219.96072"
           id="path3849"
           style="fill:#800000;fill-opacity:1;stroke:none"
           sodipodi:type="arc"
           transform="matrix(1.1843999,0,0,1,62.361737,1.4347027)" />
      </g>
    </g>
  </g>
</svg>
