<?xml version="1.0" encoding="UTF-8" standalone="no"?>
<!-- Created with Inkscape (http://www.inkscape.org/) -->

<svg
   xmlns:dc="http://purl.org/dc/elements/1.1/"
   xmlns:cc="http://creativecommons.org/ns#"
   xmlns:rdf="http://www.w3.org/1999/02/22-rdf-syntax-ns#"
   xmlns:svg="http://www.w3.org/2000/svg"
   xmlns="http://www.w3.org/2000/svg"
   xmlns:sodipodi="http://sodipodi.sourceforge.net/DTD/sodipodi-0.dtd"
   xmlns:inkscape="http://www.inkscape.org/namespaces/inkscape"
   width="151"
   height="103"
   id="svg2"
   version="1.1"
   inkscape:version="0.91 r13725"
   sodipodi:docname="car2front.svg">
  <defs
     id="defs4" />
  <sodipodi:namedview
     id="base"
     pagecolor="#ffffff"
     bordercolor="#666666"
     borderopacity="1.0"
     inkscape:pageopacity="0.0"
     inkscape:pageshadow="2"
     inkscape:zoom="3.78"
     inkscape:cx="11.478836"
     inkscape:cy="55.7"
     inkscape:document-units="px"
     inkscape:current-layer="layer1"
     showgrid="false"
     fit-margin-top="0"
     fit-margin-left="0"
     fit-margin-right="0"
     fit-margin-bottom="0"
     showborder="true"
     inkscape:showpageshadow="false"
     inkscape:snap-grids="false"
     inkscape:snap-bbox="true"
     inkscape:window-width="1366"
     inkscape:window-height="705"
     inkscape:window-x="-8"
     inkscape:window-y="-8"
     inkscape:window-maximized="1" />
  <metadata
     id="metadata7">
    <rdf:RDF>
      <cc:Work
         rdf:about="">
        <dc:format>image/svg+xml</dc:format>
        <dc:type
           rdf:resource="http://purl.org/dc/dcmitype/StillImage" />
        <dc:title></dc:title>
      </cc:Work>
    </rdf:RDF>
  </metadata>
  <g
     inkscape:label="Layer 1"
     inkscape:groupmode="layer"
     id="layer1"
     transform="translate(-283,-464)"
     style="display:inline;opacity:1">
    <path
       inkscape:connector-curvature="0"
       id="path3994"
       d="m 396,470 0,3 -2,0 1,-6 z"
       style="fill:#333333;stroke:#000000;stroke-width:0.53100000000000003px;stroke-linecap:butt;stroke-linejoin:miter;stroke-opacity:1"
       sodipodi:nodetypes="ccccc" />
    <path
       style="fill:#333333;stroke:#000000;stroke-width:0.53100000000000003px;stroke-linecap:butt;stroke-linejoin:miter;stroke-opacity:1"
       d="m 320,470 0,4 2,-1 -1,-7 z"
       id="path3992"
       inkscape:connector-curvature="0"
       sodipodi:nodetypes="ccccc" />
    <path
       style="fill:#b3b3b3;stroke:none"
       d="m 320,469 75,1 -1,-2 -72,0 z"
       id="path3990"
       inkscape:connector-curvature="0"
       sodipodi:nodetypes="ccccc" />
    <rect
       style="fill:#000000;fill-opacity:1;stroke:#000000;stroke-width:0.14000000000000001;stroke-linecap:round;stroke-linejoin:miter;stroke-miterlimit:4;stroke-opacity:1;stroke-dasharray:none;stroke-dashoffset:0"
       id="rect4000"
       width="75.1"
       height="1.8"
       x="320"
       y="469"
       ry="1.96e-006" />
    <path
       style="fill:#f2f2f2;stroke:none"
       d="m 291,515 c -2,5 -3,15 -4,19 2,3 4,16 7,14 -1,-1 1,-5 0,-6 -1,-3 -3,-8 4,-10 -1,-4 7,-18 8,-24 -4,2 -12,4 -15,7 z"
       id="path2999"
       inkscape:connector-curvature="0"
       sodipodi:nodetypes="ccccccc" />
    <path
       style="fill:#e6e6e6;fill-opacity:1;stroke:none"
       d="m 297,537 c -1,-10 3,-21 13,-35 0,0 9,-19 20,-31 20,-3 42,-2 54,0 9,8 15,19 21,31 1,3 16,26 13,36 -13,5 -121,-1 -121,-1 z"
       id="path3967"
       inkscape:connector-curvature="0"
       sodipodi:nodetypes="ccccccc" />
    <path
       sodipodi:nodetypes="ccccccc"
       inkscape:connector-curvature="0"
       id="path3154"
       d="m 423,514 c 2,4 4,15 4,20 -2,3 -2,14 -5,13 1,-1 0,-5 1,-7 2,-2 2,-6 -5,-8 1,-4 -9,-17 -10,-24 4,1 12,3 15,6 z"
       style="fill:#f2f2f2;stroke:none" />
    <path
       style="fill:#b3b3b3;fill-opacity:1;stroke:none"
       d="m 287,534 c 1,12 1,20 7,26 38,6 69,10 124,1 9,-5 9,-24 9,-27 -42,2 -95,6 -140,0 z"
       id="path3193"
       inkscape:connector-curvature="0"
       sodipodi:nodetypes="ccccc" />
    <path
       style="fill:#cccccc;fill-opacity:1;stroke:none"
       d="m 383,526 -48,0 c -10,-1 -36,-4 -36,-4 -1,3 -2,6 -2,10 0,0 2,6 4,8 35,0 71,0 105,0 6,-1 10,-3 12,-5 1,-5 -2,-11 -3,-12 -14,0 -26,2 -32,3 z"
       id="path3982"
       inkscape:connector-curvature="0"
       sodipodi:nodetypes="ccccccccc" />
    <path
       style="fill:#e6e6e6;stroke:none"
       d="m 297,533 -10,1 c 19,13 122,16 140,0 l -9,-2 c 5,4 -78,13 -121,1 z"
       id="path3166"
       inkscape:connector-curvature="0"
       sodipodi:nodetypes="ccccc" />
    <path
       style="fill:#1a1a1a;stroke:#000000;stroke-width:0.531px;stroke-linecap:butt;stroke-linejoin:miter;stroke-opacity:1"
       d="m 304,557 c 35,8 89,6 108,-1 l 3,-11 c -33,5 -69,8 -114,-1 z"
       id="path3965"
       inkscape:connector-curvature="0"
       sodipodi:nodetypes="ccccc" />
    <path
       style="fill:#ffffff;stroke:#000000;stroke-width:0.53100000000000003px;stroke-linecap:butt;stroke-linejoin:miter;stroke-opacity:1"
       d="m 302,524 c 3,1 18,1 24,3 4,1 6,6 4,7 -3,1 -30,-1 -30,-1 0,0 -1,-4 2,-9 z"
       id="path3969"
       inkscape:connector-curvature="0"
       sodipodi:nodetypes="csscc" />
    <path
       style="fill:#000000;fill-opacity:1;stroke:#000000;stroke-width:0.53100000000000003;stroke-opacity:1;stroke-miterlimit:4;stroke-dasharray:none"
       d="m 381,527 -2,12 -43,0 -2,-12 z"
       id="rect3986"
       inkscape:connector-curvature="0"
       sodipodi:nodetypes="ccccc" />
    <path
       style="fill:#1a1a1a;fill-opacity:1;stroke:#000000;stroke-width:0.51100000000000001px;stroke-linecap:butt;stroke-linejoin:miter;stroke-opacity:1"
       d="m 313,500 c 1,-5 5,-11 13,-23 18,-1 38,-1 62,0 4,5 12,17 14,23 z"
       id="path3988"
       inkscape:connector-curvature="0"
       sodipodi:nodetypes="ccccc" />
    <path
       style="fill:none;stroke:#000000;stroke-width:0.46600000000000003;stroke-linecap:butt;stroke-linejoin:miter;stroke-miterlimit:4;stroke-opacity:1;stroke-dasharray:none"
       d="m 358,472 0,-8"
       id="path4002"
       inkscape:connector-curvature="0" />
    <path
       style="fill:none;stroke:#000000;stroke-width:0.53100000000000003px;stroke-linecap:butt;stroke-linejoin:miter;stroke-opacity:1"
       d="M 332,525 315,503"
       id="path4004"
       inkscape:connector-curvature="0"
       sodipodi:nodetypes="cc" />
    <path
       style="fill:none;stroke:#000000;stroke-width:0.53100000000000003px;stroke-linecap:butt;stroke-linejoin:miter;stroke-opacity:1"
       d="m 383,525 16,-22"
       id="path4006"
       inkscape:connector-curvature="0"
       sodipodi:nodetypes="cc" />
    <path
       sodipodi:nodetypes="csscc"
       inkscape:connector-curvature="0"
       id="path3795"
       d="m 413,524 c -3,1 -18,1 -24,3 -4,1 -6,6 -4,7 3,1 30,-1 30,-1 0,0 1,-4 -2,-9 z"
       style="fill:#ffffff;stroke:#000000;stroke-width:0.53100000000000003px;stroke-linecap:butt;stroke-linejoin:miter;stroke-opacity:1" />
    <path
       transform="translate(283,464)"
       style="fill:#e9e9e9;fill-opacity:0.92500000000000004;stroke:none"
       d="m 29.8,30.2 c 1.5,2.9 0.1,1.7 0,4.3 l 0,0 c -6.4,1.4 -18.3,-1.7 -8.5,-7.3 2.9,-1.8 8.2,0.1 8.5,3 z"
       id="rect5240"
       inkscape:connector-curvature="0"
       sodipodi:nodetypes="ccccc" />
    <path
       sodipodi:nodetypes="ccccc"
       inkscape:connector-curvature="0"
       id="path5243"
       d="m 402,493 c -1,3 0,2 0,5 l 0,0 c 7,1 19,-2 9,-8 -3,-2 -8,0 -9,3 z"
       style="fill:#e9e9e9;fill-opacity:0.92500000000000004;stroke:none" />
  </g>
</svg>
