<?xml version="1.0" encoding="UTF-8" standalone="no"?>
<!-- Created with Inkscape (http://www.inkscape.org/) -->

<svg
   xmlns:dc="http://purl.org/dc/elements/1.1/"
   xmlns:cc="http://creativecommons.org/ns#"
   xmlns:rdf="http://www.w3.org/1999/02/22-rdf-syntax-ns#"
   xmlns:svg="http://www.w3.org/2000/svg"
   xmlns="http://www.w3.org/2000/svg"
   xmlns:sodipodi="http://sodipodi.sourceforge.net/DTD/sodipodi-0.dtd"
   xmlns:inkscape="http://www.inkscape.org/namespaces/inkscape"
   width="111.90679"
   height="67.055893"
   id="svg2"
   version="1.1"
   inkscape:version="0.48.3.1 r9886"
   sodipodi:docname="car.svg">
  <defs
     id="defs4" />
  <sodipodi:namedview
     id="base"
     pagecolor="#ffffff"
     bordercolor="#666666"
     borderopacity="1.0"
     inkscape:pageopacity="0.0"
     inkscape:pageshadow="2"
     inkscape:zoom="11.602261"
     inkscape:cx="55.953396"
     inkscape:cy="33.527946"
     inkscape:document-units="px"
     inkscape:current-layer="g3800"
     showgrid="false"
     inkscape:window-width="1680"
     inkscape:window-height="987"
     inkscape:window-x="-8"
     inkscape:window-y="-8"
     inkscape:window-maximized="1"
     fit-margin-top="0"
     fit-margin-left="0"
     fit-margin-right="0"
     fit-margin-bottom="0" />
  <metadata
     id="metadata7">
    <rdf:RDF>
      <cc:Work
         rdf:about="">
        <dc:format>image/svg+xml</dc:format>
        <dc:type
           rdf:resource="http://purl.org/dc/dcmitype/StillImage" />
        <dc:title />
      </cc:Work>
    </rdf:RDF>
  </metadata>
  <g
     inkscape:label="Layer 1"
     inkscape:groupmode="layer"
     id="layer1"
     transform="translate(-254.89882,-307.57198)">
    <g
       id="g3800"
       transform="matrix(0.75854892,0,0,1,102.64901,6.695279)">
      <rect
         ry="7.0120127e-006"
         y="357.81708"
         x="209.85919"
         height="10.115515"
         width="15.404826"
         id="rect3788"
         style="fill:#241c1c;fill-opacity:1;stroke:none" />
      <rect
         style="fill:#241c1c;fill-opacity:1;stroke:none"
         id="rect3794"
         width="15.404826"
         height="10.115515"
         x="322.74374"
         y="357.62976"
         ry="7.0120127e-006" />
      <rect
         style="fill:#241c1c;fill-opacity:1;stroke:none"
         id="rect3894"
         width="11.314327"
         height="10.115515"
         x="229.74356"
         y="351.61139"
         ry="7.0120127e-006" />
      <rect
         ry="7.0120127e-006"
         y="351.09424"
         x="303.94067"
         height="10.115515"
         width="11.314327"
         id="rect3896"
         style="fill:#241c1c;fill-opacity:1;stroke:none" />
      <path
         sodipodi:nodetypes="ccccccc"
         inkscape:connector-curvature="0"
         id="rect3762"
         d="m 218.08123,325.13416 112.32231,-0.2374 10.11205,5.88008 7.37218,27.84795 -145.57903,-0.0983 6.22679,-27.52908 z"
         style="fill:#d40000;fill-opacity:1;stroke:none" />
      <g
         transform="matrix(0.83730683,0,0,0.65878601,44.179934,112.97819)"
         id="g3796">
        <path
           style="fill:#aa0000;fill-opacity:1;stroke:none"
           d="m 318.86195,285.21934 20.99012,41.44652 -1e-5,10e-6 -130.38777,0 c -1e-5,0 -1e-5,-10e-6 -1e-5,-10e-6 l 19.92284,-41.44652 z"
           id="rect3759"
           inkscape:connector-curvature="0"
           sodipodi:nodetypes="cccsccc" />
        <path
           style="fill:#e6e6e6;fill-opacity:1;stroke:none"
           d="m 230.71429,288.96933 86.78569,0 1e-5,10e-6 13.92857,33.21427 -111.96428,-0.35714 c -1e-5,0 11.25,-32.85713 11.25,-32.85713 0,-10e-6 0,-10e-6 1e-5,-10e-6 z"
           id="rect3765"
           inkscape:connector-curvature="0"
           sodipodi:nodetypes="scccccs" />
      </g>
      <rect
         style="fill:#666666;fill-opacity:1;stroke:none"
         id="rect3847"
         width="108.74316"
         height="9.7624979"
         x="219.88664"
         y="341.49899"
         ry="7.1531017e-006" />
      <path
         d="m 231.0724,343.36136 c 0,2.85919 -4.97487,5.17703 -11.11168,5.17703 -6.13681,0 -11.11167,-2.31784 -11.11167,-5.17703 0,-2.8592 4.97486,-5.17703 11.11167,-5.17703 6.13681,0 11.11168,2.31783 11.11168,5.17703 z"
         sodipodi:ry="5.177032"
         sodipodi:rx="11.111678"
         sodipodi:cy="343.36136"
         sodipodi:cx="219.96072"
         id="path3768"
         style="fill:#800000;fill-opacity:1;stroke:none"
         sodipodi:type="arc"
         transform="matrix(1.1843999,0,0,1,-36.935602,3.1085224)" />
      <path
         d="m 315.67269,357.37723 c 0,1.95262 -1.69598,3.53553 -3.78808,3.53553 -2.09209,0 -3.78807,-1.58291 -3.78807,-3.53553 0,-1.95262 1.69598,-3.53554 3.78807,-3.53554 2.0921,0 3.78808,1.58292 3.78808,3.53554 z"
         sodipodi:ry="3.5355339"
         sodipodi:rx="3.7880721"
         sodipodi:cy="357.37723"
         sodipodi:cx="311.88461"
         id="path3774"
         style="fill:#4d4d4d;fill-opacity:1;stroke:none"
         sodipodi:type="arc" />
      <path
         transform="translate(8.3337585,0)"
         sodipodi:type="arc"
         style="fill:#4d4d4d;fill-opacity:1;stroke:none"
         id="path3776"
         sodipodi:cx="311.88461"
         sodipodi:cy="357.37723"
         sodipodi:rx="3.7880721"
         sodipodi:ry="3.5355339"
         d="m 315.67269,357.37723 c 0,1.95262 -1.69598,3.53553 -3.78808,3.53553 -2.09209,0 -3.78807,-1.58291 -3.78807,-3.53553 0,-1.95262 1.69598,-3.53554 3.78807,-3.53554 2.0921,0 3.78808,1.58292 3.78808,3.53554 z" />
      <path
         transform="matrix(0.73333334,0,0,0.75,83.169228,89.470576)"
         sodipodi:type="arc"
         style="fill:#000000;fill-opacity:1;stroke:none"
         id="path3784"
         sodipodi:cx="311.88461"
         sodipodi:cy="357.37723"
         sodipodi:rx="3.7880721"
         sodipodi:ry="3.5355339"
         d="m 315.67269,357.37723 c 0,1.95262 -1.69598,3.53553 -3.78808,3.53553 -2.09209,0 -3.78807,-1.58291 -3.78807,-3.53553 0,-1.95262 1.69598,-3.53554 3.78807,-3.53554 2.0921,0 3.78808,1.58292 3.78808,3.53554 z" />
      <path
         d="m 315.67269,357.37723 c 0,1.95262 -1.69598,3.53553 -3.78808,3.53553 -2.09209,0 -3.78807,-1.58291 -3.78807,-3.53553 0,-1.95262 1.69598,-3.53554 3.78807,-3.53554 2.0921,0 3.78808,1.58292 3.78808,3.53554 z"
         sodipodi:ry="3.5355339"
         sodipodi:rx="3.7880721"
         sodipodi:cy="357.37723"
         sodipodi:cx="311.88461"
         id="path3786"
         style="fill:#000000;fill-opacity:1;stroke:none"
         sodipodi:type="arc"
         transform="matrix(0.73333334,0,0,0.75,91.502987,89.218038)" />
      <rect
         style="fill:#333333;fill-opacity:1;stroke:none"
         id="rect3814"
         width="15.542612"
         height="5.0214591"
         x="282.63641"
         y="326.88089"
         transform="matrix(1.3183065,0,0,1,-135.32286,-6.695279)"
         ry="9.4531251e-006" />
      <rect
         ry="9.4531251e-006"
         y="320.18561"
         x="288.03055"
         height="5.0214591"
         width="20.489927"
         id="rect3818"
         style="fill:#333333;fill-opacity:1;stroke:none" />
      <path
         style="fill:#550000;fill-opacity:1;stroke:none"
         d="m 207.11225,328.07645 132.48668,-0.23912 8.64045,3.58677 -0.64002,2.15203 -10e-6,1e-5 -145.92737,0 -1e-5,-1e-5 -0.96005,-1.6738 z"
         id="rect3822"
         inkscape:connector-curvature="0"
         sodipodi:nodetypes="ccccccccc" />
      <rect
         style="fill:#550000;fill-opacity:1;stroke:none"
         id="rect3827"
         width="3.1522963"
         height="4.064991"
         x="244.21364"
         y="333.09793"
         ry="9.4531251e-006" />
      <rect
         ry="9.4531251e-006"
         y="333.57614"
         x="296.22653"
         height="4.064991"
         width="3.1522963"
         id="rect3831"
         style="fill:#550000;fill-opacity:1;stroke:none" />
      <rect
         style="fill:#f4d7d7;fill-opacity:1;stroke:#483737;stroke-width:1.15924132;stroke-opacity:1"
         id="rect3837"
         width="41.925541"
         height="7.0687079"
         x="253.67052"
         y="343.37994"
         ry="9.6362219e-006" />
      <path
         transform="matrix(1.1843999,0,0,1,66.144492,3.1085224)"
         sodipodi:type="arc"
         style="fill:#800000;fill-opacity:1;stroke:none"
         id="path3849"
         sodipodi:cx="219.96072"
         sodipodi:cy="343.36136"
         sodipodi:rx="11.111678"
         sodipodi:ry="5.177032"
         d="m 231.0724,343.36136 c 0,2.85919 -4.97487,5.17703 -11.11168,5.17703 -6.13681,0 -11.11167,-2.31784 -11.11167,-5.17703 0,-2.8592 4.97486,-5.17703 11.11167,-5.17703 6.13681,0 11.11168,2.31783 11.11168,5.17703 z" />
    </g>
  </g>
</svg>
